{
	"asset":{
		"version":"2.0",
		"generator":"Houdini GLTF 2.0 Exporter"
	},
	"accessors":[
		{
			"bufferView":0,
			"componentType":5125,
			"count":133563,
			"type":"SCALAR",
			"min":[0
			],
			"max":[133562
			]
		},
		{
			"bufferView":1,
			"componentType":5126,
			"count":133563,
			"type":"VEC3",
			"min":[0,0,0
			],
			"max":[0,0,0
			]
		},
		{
			"bufferView":2,
			"componentType":5126,
			"count":133563,
			"type":"VEC3",
			"min":[1,1,1
			],
			"max":[1,1,1
			]
		},
		{
			"bufferView":3,
			"componentType":5126,
			"count":133563,
			"type":"VEC3",
			"min":[0,0,0
			],
			"max":[0,0,0
			]
		},
		{
			"bufferView":4,
			"componentType":5126,
			"count":133563,
			"type":"VEC3",
			"min":[-5.20143843,0.00307086995,-9.02142048
			],
			"max":[5.18097401,8.63074398,9.01713562
			]
		},
		{
			"bufferView":5,
			"componentType":5126,
			"count":133563,
			"type":"SCALAR",
			"min":[-1.50526452
			],
			"max":[5.92477369
			]
		},
		{
			"bufferView":6,
			"componentType":5126,
			"count":133563,
			"type":"VEC2",
			"min":[0,0.00116872787
			],
			"max":[0.999816358,1
			]
		},
		{
			"bufferView":7,
			"componentType":5126,
			"count":133563,
			"type":"VEC3",
			"min":[-0.999836922,-0.999848425,-0.999651134
			],
			"max":[0.999837995,0.999976635,0.999907136
			]
		},
		{
			"bufferView":8,
			"componentType":5125,
			"count":133563,
			"type":"SCALAR",
			"min":[0
			],
			"max":[0
			]
		},
		{
			"bufferView":9,
			"componentType":5126,
			"count":133563,
			"type":"SCALAR",
			"min":[0.679336548
			],
			"max":[0.679336548
			]
		}
	],
	"buffers":[
		{
			"uri":"bird_lowpoly_data.bin",
			"byteLength":11219292,
			"name":"main_buffer"
		}
	],
	"bufferViews":[
		{
			"buffer":0,
			"byteLength":534252,
			"target":34963
		},
		{
			"buffer":0,
			"byteOffset":534252,
			"byteLength":1602756,
			"target":34962
		},
		{
			"buffer":0,
			"byteOffset":2137008,
			"byteLength":1602756,
			"target":34962
		},
		{
			"buffer":0,
			"byteOffset":3739764,
			"byteLength":1602756,
			"target":34962
		},
		{
			"buffer":0,
			"byteOffset":5342520,
			"byteLength":1602756,
			"target":34962
		},
		{
			"buffer":0,
			"byteOffset":6945276,
			"byteLength":534252,
			"target":34962
		},
		{
			"buffer":0,
			"byteOffset":7479528,
			"byteLength":1068504,
			"target":34962
		},
		{
			"buffer":0,
			"byteOffset":8548032,
			"byteLength":1602756,
			"target":34962
		},
		{
			"buffer":0,
			"byteOffset":10150788,
			"byteLength":534252,
			"target":34962
		},
		{
			"buffer":0,
			"byteOffset":10685040,
			"byteLength":534252,
			"target":34962
		}
	],
	"nodes":[
		{
			"name":"file1",
			"mesh":0
		}
	],
	"meshes":[
		{
			"primitives":[
				{
					"attributes":{
						"_coverage":9,
						"_numnonpacked":8,
						"NORMAL":7,
						"TEXCOORD_0":6,
						"_curvature":5,
						"POSITION":4,
						"_fbx_rotation":3,
						"_fbx_scale":2,
						"_fbx_translation":1
					},
					"indices":0,
					"material":0
				}
			]
		}
	],
	"materials":[
		{
			"name":"Material_1",
			"pbrMetallicRoughness":{
				"metallicFactor":0,
				"roughnessFactor":0.65200001,
				"baseColorTexture":{
					"index":0
				}
			},
			"normalTexture":{
				"index":1
			}
		}
	],
	"scenes":[
		{
			"nodes":[0
			]
		}
	],
	"textures":[
		{
			"source":0
		},
		{
			"source":1
		}
	],
	"images":[
		{
			"uri":"bird_skull_diffuse.png",
			"mimeType":"image/png"
		},
		{
			"uri":"bird_skull_normal.png",
			"mimeType":"image/png"
		}
	],
	"scene":0
}
